<svg width="87" height="85" viewBox="0 0 87 85" fill="none" xmlns="http://www.w3.org/2000/svg">
<path d="M25.9315 50L43.6849 58.3333L61.0685 50M3 62.3333L20.7534 54L38.137 62.3333L20.7534 70.6667L3 62.3333ZM48.863 62.3333L66.6164 54L84 62.3333L66.6164 70.6667L48.863 62.3333ZM25.9315 74.6667L43.6849 66.3333L61.0685 74.6667L43.6849 83L25.9315 74.6667Z" stroke="url(#paint0_linear)" stroke-width="2"/>
<mask id="path-2-inside-1" fill="white">
<path fill-rule="evenodd" clip-rule="evenodd" d="M68.4681 50.9302C76.4767 50.7054 82.8999 44.1427 82.8999 36.0797C82.8999 27.8748 76.2485 21.2234 68.0435 21.2234C67.8198 21.2234 67.5973 21.2283 67.376 21.2381C67.5359 20.2665 67.619 19.269 67.619 18.2521C67.619 8.17176 59.4473 0 49.3669 0C41.4343 0 34.6836 5.06051 32.1671 12.1294C29.5306 10.8838 26.5839 10.1873 23.4745 10.1873C12.222 10.1873 3.10001 19.3092 3.10001 30.5617C3.10001 41.8143 12.222 50.9362 23.4745 50.9362C23.4856 50.9362 23.4967 50.9362 23.5078 50.9362H68.4681V50.9302Z"/>
</mask>
<path d="M68.4681 50.9302H66.4681V48.9855L68.412 48.931L68.4681 50.9302ZM67.376 21.2381L67.4643 23.2361L65.0024 23.345L65.4025 20.9133L67.376 21.2381ZM32.1671 12.1294L34.0513 12.8001L33.3103 14.8814L31.3128 13.9377L32.1671 12.1294ZM23.5078 50.9362L23.5044 48.9362H23.5078V50.9362ZM68.4681 50.9362H70.4681V52.9362H68.4681V50.9362ZM68.412 48.931C75.3414 48.7365 80.8999 43.0569 80.8999 36.0797H84.8999C84.8999 45.2285 77.612 52.6744 68.5242 52.9294L68.412 48.931ZM80.8999 36.0797C80.8999 28.9794 75.1439 23.2234 68.0435 23.2234V19.2234C77.353 19.2234 84.8999 26.7702 84.8999 36.0797H80.8999ZM68.0435 23.2234C67.8493 23.2234 67.6562 23.2276 67.4643 23.2361L67.2876 19.24C67.5384 19.229 67.7904 19.2234 68.0435 19.2234V23.2234ZM65.4025 20.9133C65.5448 20.0487 65.619 19.1598 65.619 18.2521H69.619C69.619 19.3782 69.5269 20.4843 69.3495 21.5628L65.4025 20.9133ZM65.619 18.2521C65.619 9.27633 58.3427 2 49.3669 2V-2C60.5519 -2 69.619 7.06719 69.619 18.2521H65.619ZM49.3669 2C42.3067 2 36.293 6.50311 34.0513 12.8001L30.2829 11.4586C33.0742 3.61792 40.562 -2 49.3669 -2V2ZM31.3128 13.9377C28.9378 12.8157 26.2823 12.1873 23.4745 12.1873V8.18727C26.8855 8.18727 30.1234 8.95191 33.0214 10.321L31.3128 13.9377ZM23.4745 12.1873C13.3265 12.1873 5.10001 20.4138 5.10001 30.5617H1.10001C1.10001 18.2047 11.1174 8.18727 23.4745 8.18727V12.1873ZM5.10001 30.5617C5.10001 40.7097 13.3265 48.9362 23.4745 48.9362V52.9362C11.1174 52.9362 1.10001 42.9188 1.10001 30.5617H5.10001ZM23.4745 48.9362C23.4847 48.9362 23.4946 48.9362 23.5044 48.9362L23.5113 52.9362C23.4988 52.9362 23.4865 52.9362 23.4745 52.9362V48.9362ZM23.5078 48.9362H68.4681V52.9362H23.5078V48.9362ZM66.4681 50.9362V50.9302H70.4681V50.9362H66.4681Z" fill="url(#paint1_linear)" mask="url(#path-2-inside-1)"/>
<defs>
<linearGradient id="paint0_linear" x1="3" y1="83" x2="84" y2="83" gradientUnits="userSpaceOnUse">
<stop stop-color="#0074FF"/>
<stop offset="1" stop-color="#D49CFF"/>
</linearGradient>
<linearGradient id="paint1_linear" x1="3.4371" y1="50.9923" x2="82.563" y2="50.9923" gradientUnits="userSpaceOnUse">
<stop stop-color="#0074FF"/>
<stop offset="1" stop-color="#D49CFF"/>
</linearGradient>
</defs>
</svg>
