<svg width="130" height="27" viewBox="0 0 130 27" fill="none" xmlns="http://www.w3.org/2000/svg">
<path d="M0 3.09961H4.11912V13.9471L15.2777 3.09961H20.7943L11.6294 11.623L20.9714 23.8983H15.8458L8.77392 14.1242L4.11912 18.4961V23.8961H0V3.09961Z" fill="#0074FF"/>
<path d="M27.0647 3.09961H31.1838V20.3666H40.9794V23.8983H27.0647V3.09961Z" fill="#0074FF"/>
<path d="M47.0708 3.09961H51.1921V23.8983H47.0708V3.09961Z" fill="#0074FF"/>
<path d="M62.0742 22.7511C60.4791 21.8511 59.1868 20.498 58.3611 18.8631C57.5334 17.1947 57.1136 15.3536 57.1364 13.4912C57.1134 11.6282 57.5332 9.78629 58.3611 8.11715C59.1868 6.48232 60.4791 5.12923 62.0742 4.22915C63.7345 3.26435 65.7757 2.78123 68.1978 2.77979C70.6198 2.77835 72.6603 3.26147 74.3192 4.22915C75.9149 5.1291 77.2079 6.48217 78.0344 8.11715C78.8623 9.78629 79.2821 11.6282 79.2591 13.4912C79.2819 15.3536 78.8621 17.1947 78.0344 18.8631C77.2079 20.4981 75.9149 21.8512 74.3192 22.7511C72.6603 23.7159 70.6198 24.1991 68.1978 24.2005C65.7757 24.2019 63.7345 23.7188 62.0742 22.7511ZM72.049 19.8956C73.0314 19.2546 73.793 18.3271 74.2306 17.2388C74.6998 16.0489 74.9317 14.7788 74.9132 13.4999C74.9325 12.223 74.7006 10.9548 74.2306 9.76739C73.7916 8.68164 73.0302 7.75662 72.049 7.11707C71.0497 6.45611 69.7659 6.12491 68.1978 6.12347C66.6296 6.12203 65.3451 6.45323 64.3443 7.11707C63.3638 7.75725 62.6025 8.68207 62.1627 9.76739C61.6935 10.9549 61.4623 12.2231 61.4823 13.4999C61.4631 14.7786 61.6943 16.0488 62.1627 17.2388C62.6011 18.3267 63.3625 19.254 64.3443 19.8956C65.3437 20.5566 66.6282 20.8878 68.1978 20.8892C69.7674 20.8907 71.0511 20.5595 72.049 19.8956Z" fill="#0074FF"/>
<path d="M101.028 27H96.5219V22.4986H101.028V27ZM101.028 20.25H96.5219V15.7442H101.028V20.25ZM91.5043 22.4986H86.9963V17.9993H91.5043V22.4986ZM91.5043 15.7486H86.9963V11.2493H91.5043V15.7486ZM91.5043 8.99856H86.9963V4.49928H91.5043V8.99856ZM120.077 11.2493H115.56V6.75H120.068L120.077 11.2493ZM120.077 4.49928H115.56V0H120.068L120.077 4.49928ZM110.553 22.4986H106.056V17.9993H110.564L110.553 22.4986ZM110.553 15.7486H106.056V11.2493H110.564L110.553 15.7486ZM110.553 8.99856H106.056V4.49928H110.564L110.553 8.99856ZM129.6 22.4986H125.092V17.9993H129.6V22.4986ZM129.6 15.7442H125.092V11.2493H129.6V15.7442ZM129.6 8.99424H125.092V4.49928H129.6V8.99424Z" fill="url(#paint0_linear)"/>
<defs>
<linearGradient id="paint0_linear" x1="129.6" y1="13.5" x2="86.9963" y2="13.5" gradientUnits="userSpaceOnUse">
<stop stop-color="#E3BBFF"/>
<stop offset="0.97" stop-color="#0074FF"/>
</linearGradient>
</defs>
</svg>
