<svg width="1440" height="176" viewBox="0 0 1440 176" fill="none" xmlns="http://www.w3.org/2000/svg">
<path d="M572.29 63.5701H547V38.2901H572.28L572.29 63.5701ZM625.71 139.42H600.43V164.7H625.71V139.42ZM572.29 76.2101H547V101.5H572.28L572.29 76.2101ZM572.29 0.360107H547V25.6501H572.28L572.29 0.360107ZM518.88 63.5701H493.59V88.8601H518.88V63.5701ZM572.29 114.14H547V139.42H572.28L572.29 114.14ZM518.88 101.5H493.59V126.78H518.88V101.5ZM518.88 25.6501H493.59V50.9301H518.88V25.6501ZM679.13 88.8601H653.85V114.14H679.13V88.8601ZM732.55 139.42H707.27V164.7H732.55V139.42ZM732.55 101.5H707.27V126.78H732.55V101.5ZM625.71 63.5701H600.43V88.8601H625.71V63.5701ZM679.13 126.78H653.85V152.06H679.13V126.78ZM625.71 101.5H600.43V126.78H625.71V101.5ZM625.71 25.6501H600.43V50.9301H625.71V25.6501ZM305.2 139.42H279.92V164.7H305.2V139.42ZM305.2 101.5H279.92V126.78H305.2V101.5ZM732.55 63.5701H707.27V88.8601H732.55V63.5701ZM358.62 114.14H333.34V139.42H358.62V114.14ZM305.2 63.5701H279.92V88.8601H305.2V63.5701ZM145.41 76.2101H120.12V101.5H145.41V76.2101ZM198.83 139.42H173.54V164.7H198.83V139.42ZM518.83 139.42H493.59V164.7H518.88L518.83 139.42ZM252.24 126.78H227V152.06H252.28L252.24 126.78ZM465.46 126.78H440.17V152.06H465.46V126.78ZM465.46 88.8601H440.17V114.14H465.46V88.8601ZM412 63.5701H386.76V88.8601H412V63.5701ZM412 139.42H386.76V164.7H412V139.42ZM358.58 76.2101H333.34V101.5H358.62L358.58 76.2101ZM412 101.5H386.76V126.78H412V101.5ZM1213.28 38.2901H1188V63.5701H1213.29L1213.28 38.2901ZM732.55 25.6501H707.27V50.9301H732.55V25.6501ZM1266.74 139.42H1241.45V164.7H1266.74V139.42ZM1266.74 101.5H1241.45V126.78H1266.74V101.5ZM1213.32 114.14H1188V139.42H1213.29L1213.32 114.14ZM1159.9 63.5701H1134.62V88.8601H1159.9V63.5701ZM1266.74 63.5701H1241.45V88.8601H1266.74V63.5701ZM1213.32 76.2101H1188V101.5H1213.29L1213.32 76.2101ZM1320.15 88.8601H1294.87V114.14H1320.15V88.8601ZM1373.57 25.6501H1348.29V50.9301H1373.57V25.6501ZM1427 114.14H1401.72V139.42H1427V114.14ZM1320.16 126.78H1294.88V152.06H1320.16V126.78ZM1373.58 63.5701H1348.3V88.8601H1373.58V63.5701ZM1373.58 101.5H1348.3V126.78H1373.58V101.5ZM1159.91 101.5H1134.63V126.78H1159.91V101.5ZM1373.58 139.42H1348.3V164.7H1373.58V139.42ZM145.41 114.14H120.12V139.42H145.41V114.14ZM892.81 126.78H867.52V152.06H892.81V126.78ZM839.39 101.5H814.1V126.78H839.39V101.5ZM892.81 88.8601H867.52V114.14H892.81V88.8601ZM946.22 139.42H920.94V164.7H946.22V139.42ZM786 114.14H760.69V139.42H786V114.14ZM839.42 139.42H814.1V164.7H839.39L839.42 139.42ZM1159.93 139.42H1134.65V164.7H1159.93V139.42ZM786 76.2101H760.69V101.5H786V76.2101ZM1053.09 139.42H1027.81V164.7H1053.09V139.42ZM1053.09 101.5H1027.81V126.78H1053.09V101.5ZM1106.51 126.78H1081.2V152.06H1106.48L1106.51 126.78ZM999.64 114.14H974.36V139.42H999.64V114.14ZM946.22 101.5H920.94V126.78H946.22V101.5ZM999.64 76.2101H974.36V101.5H999.64V76.2101ZM38.57 88.8601H13.29V114.14H38.57V88.8601ZM13.29 164.7V176H38.57V164.7H13.29ZM38.57 176H13.29H38.57ZM679.13 176H653.85H679.13ZM252.24 176H227H252.24ZM465.5 176H440.17H465.5ZM1320.17 176H1294.89H1320.17ZM892.83 176H867.52H892.83ZM1106.52 176H1081.2H1106.52ZM1081.2 164.7V176H1106.48V164.7H1081.2ZM1188 152.06V176H1213.29V152.06H1188ZM974.33 152.06V176H999.61V152.06H974.33ZM1426.96 152.06H1401.68V176H1427L1426.96 152.06ZM1294.87 164.7V176H1320.15V164.7H1294.87ZM867.52 164.7V176H892.81V164.7H867.52ZM227 164.7V176H252.28V164.7H227ZM333.38 152.06V176H358.66V152.06H333.38ZM760.73 152.06V176H786V152.06H760.73ZM440.17 164.7V176H465.46V164.7H440.17ZM120.17 152.06V176H145.46V152.06H120.17ZM547.06 152.06V176H572.34V152.06H547.06ZM653.85 164.7V176H679.13V164.7H653.85ZM92 139.42H66.71V164.7H92V139.42ZM92 101.5H66.71V126.78H92V101.5ZM92 63.5701H66.71V88.8601H92V63.5701ZM92 25.6501H66.71V50.9301H92V25.6501ZM38.57 126.78H13.29V152.06H38.57V126.78Z" fill="url(#paint0_linear)"/>
<rect x="1440" y="176" width="1440" height="53.0001" transform="rotate(180 1440 176)" fill="url(#paint1_linear)"/>
<defs>
<linearGradient id="paint0_linear" x1="13.29" y1="88.1801" x2="1426.99" y2="88.1801" gradientUnits="userSpaceOnUse">
<stop stop-color="#0074FF"/>
<stop offset="1" stop-color="#E3BBFF"/>
</linearGradient>
<linearGradient id="paint1_linear" x1="2160" y1="176" x2="2160" y2="229" gradientUnits="userSpaceOnUse">
<stop stop-opacity="0.8"/>
<stop offset="1" stop-opacity="0"/>
</linearGradient>
</defs>
</svg>
